<?xml version="1.0" encoding="UTF-8" standalone="no"?>
<!-- Created with Inkscape (http://www.inkscape.org/) -->

<svg
   version="1.1"
   id="svg1"
   width="1000"
   height="1000"
   viewBox="0 0 1000 1000"
   xmlns="http://www.w3.org/2000/svg"
   xmlns:svg="http://www.w3.org/2000/svg">
  <defs
     id="defs1" />
  <g
     id="g1">
    <path
       d="M 0,0 V 1000 H 1000 V 0 Z M 9.9257813,9.96875 H 989.99805 V 990.20898 H 9.9257813 Z"
       style="fill:#faf2dd;stroke-width:2;stroke-linecap:round;stroke-linejoin:round"
       id="path25" />
    <path
       d="M 9.9257813,9.96875 V 990.20898 H 989.99805 V 9.96875 Z M 108.46094,157.03906 H 891.98047 V 940.14648 H 108.46094 Z"
       style="fill:#ff0000;stroke-width:2;stroke-linecap:round;stroke-linejoin:round"
       id="path26" />
    <path
       d="M 108.46094,157.03906 V 940.14648 H 891.98047 V 157.03906 Z M 206.26172,304.8457 H 794.67969 V 890.99219 H 206.26172 Z"
       style="fill:#8dd35f;stroke-width:2;stroke-linecap:round;stroke-linejoin:round"
       id="path28" />
    <path
       d="M 206.26172,304.8457 V 890.99219 H 794.67969 V 304.8457 Z m 97.19726,145.95117 H 696.28125 V 841.83008 H 303.45898 Z"
       style="fill:#00ffff;stroke-width:2;stroke-linecap:round;stroke-linejoin:round"
       id="path29" />
    <path
       id="rect1"
       style="fill:#ff0000;stroke-width:0;stroke-linecap:round;stroke-linejoin:round"
       d="m 303.45887,450.79608 h 392.82222 c 0,0 1e-5,10e-6 1e-5,10e-6 v 391.0338 c 0,0 -1e-5,10e-6 -1e-5,10e-6 H 303.45887 c 0,0 -10e-6,-10e-6 -10e-6,-10e-6 v -391.0338 z" />
  </g>
</svg>
