<?xml version="1.0" encoding="UTF-8" standalone="no"?>
<!-- Created with Inkscape (http://www.inkscape.org/) -->

<svg
   version="1.1"
   id="svg1"
   width="2500"
   height="1550.333"
   viewBox="0 0 2499.9999 1550.3331"
   xmlns="http://www.w3.org/2000/svg"
   xmlns:svg="http://www.w3.org/2000/svg">
  <defs
     id="defs1" />
  <g
     id="layer1"
     style="display:inline">
    <g
       id="g48">
      <path
         style="fill:none;stroke:#ff0000;stroke-width:13.474;stroke-linecap:round;stroke-linejoin:round;stroke-dasharray:none"
         d="M 60.152578,154.92786 90.92832,51.759196 120.65488,154.22841"
         id="path3" />
      <path
         style="fill:#ffff00;stroke:#ffff00;stroke-width:13.474;stroke-linecap:round;stroke-linejoin:round;stroke-dasharray:none"
         d="M 68.051716,128.4478 H 113.17586"
         id="path4" />
    </g>
    <g
       id="g49">
      <path
         style="fill:none;stroke:#ff0000;stroke-width:13.474;stroke-linecap:round;stroke-linejoin:round;stroke-dasharray:none"
         d="M 277.85675,50.825985 V 153.2006 h 40.70896 c 32.88055,-14.82912 18.67936,-45.18205 0,-50.22378 26.15487,-6.274032 27.47049,-45.946873 0,-51.548632 z"
         id="path5" />
      <path
         style="fill:none;stroke:#ffff00;stroke-width:13.474;stroke-linecap:round;stroke-linejoin:round;stroke-dasharray:none"
         d="m 277.85675,102.85638 h 41.19222"
         id="path6" />
    </g>
    <g
       id="g50">
      <path
         style="fill:none;stroke:#ffff00;stroke-width:13.474;stroke-linecap:round;stroke-linejoin:round;stroke-dasharray:none"
         d="m 557.64054,51.066866 h -27.58092 c -4.17462,0.390933 -8.39523,1.517719 -12.88716,6.985562 l -16.50038,31.796351 c -4.65098,10.080787 -2.97764,17.262921 0,23.847261 l 17.10258,33.48252 c 3.79213,5.44437 7.94444,5.84629 12.04408,6.98556 h 25.89475"
         id="path7" />
    </g>
    <g
       id="g51">
      <path
         style="display:inline;fill:none;stroke:#ff0000;stroke-width:13.474;stroke-linecap:round;stroke-linejoin:round;stroke-dasharray:none"
         d="m 714.26342,51.066866 h 27.58092 c 4.17462,0.390933 8.39523,1.517719 12.88716,6.985562 l 16.50038,31.796351 c 4.65098,10.080787 2.97764,17.262921 0,23.847261 l -17.10258,33.48252 c -3.79213,5.44437 -7.94444,5.84629 -12.04408,6.98556 h -25.89475"
         id="path7-7" />
      <path
         style="fill:#ffff00;stroke:#ffff00;stroke-width:13.474;stroke-linecap:round;stroke-linejoin:round;stroke-dasharray:none"
         d="m 729.75034,51.066866 -0.6125,103.097254"
         id="path8" />
    </g>
    <g
       id="g52">
      <path
         style="fill:none;stroke:#ffff00;stroke-width:13.474;stroke-linecap:round;stroke-linejoin:round;stroke-dasharray:none"
         d="M 993.7564,51.307748 H 933.4156 V 153.8028 h 60.09992"
         id="path9" />
      <path
         style="fill:none;stroke:#ff0000;stroke-width:13.474;stroke-linecap:round;stroke-linejoin:round;stroke-dasharray:none"
         d="M 933.4156,102.55527 H 963.586"
         id="path10" />
    </g>
    <g
       id="g53">
      <path
         style="fill:none;stroke:#ff0000;stroke-width:13.474;stroke-linecap:round;stroke-linejoin:round;stroke-dasharray:none"
         d="m 1212.4767,51.066866 h -60.943 V 153.68236"
         id="path11" />
      <path
         style="fill:none;stroke:#ffff00;stroke-width:13.474;stroke-linecap:round;stroke-linejoin:round;stroke-dasharray:none"
         d="m 1151.5337,90.08966 h 45.7675"
         id="path12" />
    </g>
    <g
       id="g54">
      <path
         style="fill:none;stroke:#ffff00;stroke-width:13.474;stroke-linecap:round;stroke-linejoin:round;stroke-dasharray:none"
         d="m 1431.1971,51.428188 h -25.5334 c -3.9369,0.712602 -7.6638,2.265398 -10.9601,5.540274 l -19.5114,25.05167 c -4.1304,4.768251 -5.39,10.580457 -6.0221,16.620819 v 37.457069 c -0.082,10.14339 5.0613,16.07209 14.9347,18.18655 h 29.2671 c 9.5541,-1.17411 14.4512,-5.57235 15.6573,-12.52584 v -26.13564 h -22.6429"
         id="path13" />
    </g>
    <g
       id="g55">
      <path
         style="fill:none;stroke:#ffff00;stroke-width:13.474;stroke-linecap:round;stroke-linejoin:round;stroke-dasharray:none"
         d="M 1586.927,52.030392 V 152.35751"
         id="path14" />
      <path
         style="display:inline;fill:none;stroke:#ffff00;stroke-width:13.474;stroke-linecap:round;stroke-linejoin:round;stroke-dasharray:none"
         d="M 1647.5087,52.030392 V 152.35751"
         id="path14-8" />
      <path
         style="fill:none;stroke:#ff0000;stroke-width:13.474;stroke-linecap:round;stroke-linejoin:round;stroke-dasharray:none"
         d="m 1586.927,102.19395 h 60.5817"
         id="path15" />
    </g>
    <g
       id="g56">
      <path
         style="fill:none;stroke:#ff0000;stroke-width:13.474;stroke-linecap:round;stroke-linejoin:round;stroke-dasharray:none"
         d="m 1805.5269,51.187307 h 59.859"
         id="path16" />
      <path
         style="display:inline;fill:none;stroke:#ff0000;stroke-width:13.474;stroke-linecap:round;stroke-linejoin:round;stroke-dasharray:none"
         d="m 1805.5269,154.04368 h 59.859"
         id="path16-0" />
      <path
         style="fill:none;stroke:#ffff00;stroke-width:13.474;stroke-linecap:round;stroke-linejoin:round;stroke-dasharray:none"
         d="M 1835.4564,51.187307 V 154.04368"
         id="path17" />
    </g>
    <g
       id="g57">
      <path
         style="fill:none;stroke:#ffff00;stroke-width:13.474;stroke-linecap:round;stroke-linejoin:round;stroke-dasharray:none"
         d="m 2076.0367,50.705544 v 89.126136 c -0.4299,6.79304 -4.1067,11.3132 -10.9601,13.6098 h -19.5114 c -7.034,-0.31476 -11.9935,-4.22552 -14.212,-12.88716 v -25.05167"
         id="path18" />
    </g>
    <g
       id="g58">
      <path
         style="fill:none;stroke:#ff0000;stroke-width:13.474;stroke-linecap:round;stroke-linejoin:round;stroke-dasharray:none"
         d="M 2242.2449,50.223781 V 154.52545"
         id="path19" />
      <path
         style="fill:none;stroke:#ffff00;stroke-width:13.474;stroke-linecap:round;stroke-linejoin:round;stroke-dasharray:none"
         d="m 2302.9471,51.066866 -60.7022,51.307754 60.4612,51.7895"
         id="path20" />
    </g>
    <g
       id="g59">
      <path
         style="fill:none;stroke:#ffff00;stroke-width:13.474;stroke-linecap:round;stroke-linejoin:round;stroke-dasharray:none"
         d="M 60.357899,238.10081 V 340.24495 H 120.7158"
         id="path21" />
    </g>
    <g
       id="g60">
      <path
         id="path22-4"
         style="display:inline;fill:none;stroke:#ffff00;stroke-width:13.474;stroke-linecap:round;stroke-linejoin:round;stroke-dasharray:none"
         d="M 338.22629,341.45614 V 237.09148 l -28.56158,35.81321 -29.86901,-35.81321 0.11766,104.53879" />
    </g>
    <g
       id="g61">
      <path
         style="fill:none;stroke:#ffff00;stroke-width:13.474;stroke-linecap:round;stroke-linejoin:round;stroke-dasharray:none"
         d="M 496.59007,341.55707 V 237.19241 l 60.25697,104.1628 V 236.99055"
         id="path22" />
    </g>
    <g
       id="g62">
      <path
         style="fill:none;stroke:#ffff00;stroke-width:13.474;stroke-linecap:round;stroke-linejoin:round;stroke-dasharray:none"
         d="m 734.48901,243.45025 -16.95673,34.82187 c -2.9607,6.93073 -2.9607,13.99604 0,21.19592 l 17.66327,36.33586 c 6.99801,5.51767 13.49137,5.6186 18.87446,0.10093 l 18.77352,-36.63866 c 1.69212,-7.08906 2.32395,-14.03674 0,-20.59032 L 754.9784,243.34932 c -5.94427,-5.6116 -12.40551,-7.92752 -20.48939,0.10093 z"
         id="path23" />
    </g>
    <g
       id="g63">
      <path
         style="fill:none;stroke:#ffff00;stroke-width:13.474;stroke-linecap:round;stroke-linejoin:round;stroke-dasharray:none"
         d="M 932.92318,340.64868 V 237.69708 H 978.343 c 8.48532,2.05994 14.3655,6.13677 14.53434,14.63527 v 30.68362 c -0.75032,6.84924 -5.82816,10.63315 -13.02034,12.91941 h -46.93382"
         id="path24" />
    </g>
    <g
       id="g64">
      <path
         style="fill:none;stroke:#ffff00;stroke-width:13.474;stroke-linecap:round;stroke-linejoin:round;stroke-dasharray:none"
         d="m 1156.1868,273.32641 38.1527,-33.20694 c 9.6563,-3.6678 14.6642,-0.36308 16.2502,8.07463 l -0.1009,44.00677 c 0.1822,8.13459 -3.2401,12.31267 -6.4597,15.9474 l -34.4182,29.47242 c -6.7831,4.15242 -13.2275,4.64591 -18.6726,-5.65225 v -45.01609 c 0.7605,-5.09145 2.082,-9.87118 5.2485,-13.62594 z"
         id="path25" />
      <path
         style="fill:none;stroke:#ff0000;stroke-width:13.474;stroke-linecap:round;stroke-linejoin:round;stroke-dasharray:none"
         d="m 1181.6219,302.29416 14.7363,38.35452 h 15.1399"
         id="path26" />
    </g>
    <g
       id="g65">
      <path
         style="fill:none;stroke:#ff0000;stroke-width:13.474;stroke-linecap:round;stroke-linejoin:round;stroke-dasharray:none"
         d="M 1369.8619,341.25427 V 237.99988 l 46.0254,0.40373 c 7.0722,1.39136 13.011,4.64745 13.4241,14.02968 v 11.10262 c -1.207,8.26294 -6.9654,10.96308 -12.9194,13.42408 h -46.5301"
         id="path27" />
      <path
         style="fill:none;stroke:#ffff00;stroke-width:13.474;stroke-linecap:round;stroke-linejoin:round;stroke-dasharray:none"
         d="M 1429.7151,340.85054 1393.127,276.95999"
         id="path28" />
    </g>
    <g
       id="g66">
      <path
         style="fill:none;stroke:#ffff00;stroke-width:13.474;stroke-linecap:round;stroke-linejoin:round;stroke-dasharray:none"
         d="m 1647.8312,251.92862 c 0.1205,-6.42146 -3.3398,-10.84461 -8.983,-13.42408 l -41.4835,-0.40373 c -9.2478,3.19256 -10.4622,9.09435 -6.7625,16.14927 l 54.1001,70.45119 c 7.1238,9.47695 0.9761,12.45935 -4.1383,15.94741 h -38.8592 c -5.822,-0.46732 -10.7899,-2.98441 -13.9287,-9.89143 v -3.22986"
         id="path29" />
    </g>
    <g
       id="g67">
      <path
         style="fill:none;stroke:#ffff00;stroke-width:13.474;stroke-linecap:round;stroke-linejoin:round;stroke-dasharray:none"
         d="m 1806.094,251.72676 v -13.12129 h 59.3486 v 12.61662"
         id="path30" />
      <path
         style="fill:none;stroke:#ff0000;stroke-width:13.474;stroke-linecap:round;stroke-linejoin:round;stroke-dasharray:none"
         d="M 1835.7683,238.60547 V 340.54774"
         id="path31" />
    </g>
    <g
       id="g68">
      <path
         style="fill:none;stroke:#ff0000;stroke-width:13.474;stroke-linecap:round;stroke-linejoin:round;stroke-dasharray:none"
         d="m 2023.6045,238.20174 v 86.0958 c 1.0546,9.17324 5.7418,14.714 14.3325,16.35114 h 31.9958 c 9.7878,-2.08471 14.0276,-7.40575 14.1306,-15.13994 v -87.0042"
         id="path32" />
    </g>
    <g
       id="g69">
      <path
         id="path33-0"
         style="display:inline;fill:none;stroke:#ff0000;stroke-width:13.474;stroke-linecap:round;stroke-linejoin:round;stroke-dasharray:none"
         d="m 2302.4822,237.59614 -0.1009,24.93044 -29.884,77.78232 -29.8178,-78.3138 0.2124,-24.13646" />
    </g>
    <g
       id="g70">
      <path
         style="fill:none;stroke:#ff0000;stroke-width:13.474;stroke-linecap:round;stroke-linejoin:round;stroke-dasharray:none"
         d="m 59.651368,425.23048 0.201866,88.72006 7.973703,13.42408 13.625947,-0.10093 8.781166,-11.70823 v -53.49445"
         id="path33" />
      <path
         style="display:inline;fill:none;stroke:#ffff00;stroke-width:13.474;stroke-linecap:round;stroke-linejoin:round;stroke-dasharray:none"
         d="m 120.81673,425.23048 -0.20186,88.72006 -7.97371,13.42408 -13.625944,-0.10093 -8.781166,-11.70823"
         id="path33-3" />
    </g>
    <g
       id="g71">
      <path
         style="fill:none;stroke:#ffff00;stroke-width:13.474;stroke-linecap:round;stroke-linejoin:round;stroke-dasharray:none"
         d="m 279.68518,424.42302 59.95907,102.87906 m -59.95907,-102.87906 59.95907,102.87906"
         id="path34" />
      <path
         style="display:inline;fill:none;stroke:#ff0000;stroke-width:13.474;stroke-linecap:round;stroke-linejoin:round;stroke-dasharray:none"
         d="M 339.64425,424.42302 279.68518,527.30208 M 339.64425,424.42302 279.68518,527.30208"
         id="path34-5" />
    </g>
    <g
       id="g72">
      <path
         style="fill:none;stroke:#ff0000;stroke-width:13.474;stroke-linecap:round;stroke-linejoin:round"
         d="m 497.13153,424.54966 -0.0835,13.11318 29.73435,37.83612 0.0835,51.53396"
         id="path1" />
      <path
         style="display:inline;fill:none;stroke:#ffff00;stroke-width:13.474;stroke-linecap:round;stroke-linejoin:round"
         d="m 556.51673,424.54966 0.0835,13.11318 -29.73435,37.83612"
         id="path1-0" />
    </g>
    <g
       id="g73">
      <path
         style="fill:none;stroke:#ffff00;stroke-width:13.474;stroke-linecap:round;stroke-linejoin:round"
         d="m 714.62657,424.80023 59.63575,0.41762 -59.13461,102.06564 59.30165,-0.16704"
         id="path35" />
    </g>
    <g
       id="g74">
      <path
         style="fill:none;stroke:#ffff00;stroke-width:13.474;stroke-linecap:round;stroke-linejoin:round;stroke-dasharray:none"
         d="M 74.787745,643.69009 H 105.4979 c 4.81031,2.339 10.32647,2.384 12.27533,14.0227 l 2.14053,57.05187"
         id="path74" />
      <path
         style="fill:none;stroke:#ff0000;stroke-width:13.474;stroke-linecap:round;stroke-linejoin:round;stroke-dasharray:none"
         d="m 118.84349,686.23873 -12.8021,-10.65818 H 74.632196 c -7.824141,0.48988 -12.760869,4.39215 -14.360508,12.23826 v 13.08716 c 1.700033,6.81252 5.33564,11.68947 12.309007,13.22865 h 23.9106 l 22.899275,-13.31453"
         id="path75" />
    </g>
    <g
       id="g75">
      <path
         style="fill:none;stroke:#ff0000;stroke-width:13.474;stroke-linecap:round;stroke-linejoin:round;stroke-dasharray:none"
         d="M 278.45731,610.74243 V 713.04501"
         id="path76" />
      <path
         style="fill:none;stroke:#ffff00;stroke-width:13.474;stroke-linecap:round;stroke-linejoin:round;stroke-dasharray:none"
         d="m 278.45731,661.89372 c 7.28319,-6.93327 15.28574,-12.85943 23.89043,-17.9426 l 18.14086,-0.39653 c 10.37798,3.74197 15.81999,10.10617 17.74434,18.33913 v 34.10086 c -1.78389,7.70606 -6.81386,13.13985 -13.87825,17.14956 h -20.42087 c -11.92361,-6.01253 -19.32407,-13.46423 -25.47651,-21.31304"
         id="path77" />
    </g>
    <g
       id="g76">
      <path
         style="fill:none;stroke:#ffff00;stroke-width:13.474;stroke-linecap:round;stroke-linejoin:round;stroke-dasharray:none"
         d="m 557.01375,643.05894 h -31.82086 c -4.07087,0.87307 -8.087,2.18398 -11.89565,5.15478 l -13.58086,12.29217 c -2.05935,2.47234 -2.89714,5.62333 -2.5774,9.41739 v 18.93391 c 0.31891,4.44556 2.6607,7.71111 6.14609,10.30956 l 13.58087,11.99478 c 3.0659,2.1621 6.88479,2.81823 11.00347,2.87478 h 29.73912"
         id="path78" />
    </g>
    <g
       id="g77">
      <path
         style="fill:none;stroke:#ffff00;stroke-width:13.474;stroke-linecap:round;stroke-linejoin:round;stroke-dasharray:none"
         d="M 774.70412,609.05721 V 713.93718"
         id="path79" />
      <path
         style="fill:none;stroke:#ff0000;stroke-width:13.474;stroke-linecap:round;stroke-linejoin:round;stroke-dasharray:none"
         d="m 774.70412,661.4972 c -3.36414,-2.93335 -20.13547,-17.33429 -25.97217,-17.9426 l -17.84347,0.29739 c -7.9162,3.27642 -11.78738,9.90136 -15.76174,17.64521 l -0.19826,35.58782 c 3.30144,7.13767 7.40713,13.85832 17.74435,17.34781 l 17.05043,-0.0991 c 10.60695,-6.0841 16.9513,-12.70227 24.98086,-20.12346"
         id="path80" />
    </g>
    <g
       id="g78">
      <path
         style="fill:none;stroke:#ff0000;stroke-width:13.474;stroke-linecap:round;stroke-linejoin:round;stroke-dasharray:none"
         d="m 933.21364,681.7198 h 59.18085 v -18.83478 c 0.41799,-8.96021 -7.98385,-13.93727 -15.46434,-19.33043 h -23.69217 c -10.76412,2.41766 -17.4218,8.6851 -19.72695,19.03304 l 0.0991,34.79478 c 4.41885,9.73873 11.68549,14.49386 20.32173,16.85216 h 37.86782"
         id="path81" />
    </g>
    <g
       id="g79">
      <path
         style="fill:none;stroke:#ff0000;stroke-width:13.474;stroke-linecap:round;stroke-linejoin:round;stroke-dasharray:none"
         d="m 1170.3336,713.44153 v -82.87302 c 1.9196,-14.16939 9.572,-16.87332 17.4469,-19.13217 h 19.5287"
         id="path82" />
      <path
         style="fill:none;stroke:#ffff00;stroke-width:13.474;stroke-linecap:round;stroke-linejoin:round;stroke-dasharray:none"
         d="m 1153.8779,643.45546 h 38.9583"
         id="path83" />
    </g>
    <g
       id="g80">
      <path
         style="fill:none;stroke:#ffff00;stroke-width:13.474;stroke-linecap:round;stroke-linejoin:round;stroke-dasharray:none"
         d="m 1429.3613,643.35633 v 83.96346 l -15.3652,18.33912 h -37.4713"
         id="path84" />
      <path
         style="fill:none;stroke:#ff0000;stroke-width:13.474;stroke-linecap:round;stroke-linejoin:round;stroke-dasharray:none"
         d="m 1429.3613,662.98415 c -6.8727,-7.50994 -15.9612,-14.29671 -23.8904,-19.42955 l -17.9426,0.69391 c -9.1382,2.22749 -14.4026,8.32871 -17.7405,16.35651 v 28.64869 c 1.7467,8.25429 7.8738,13.91273 16.7492,17.9426 l 16.4061,-0.0991 c 11.8522,-4.5055 18.9021,-12.11838 26.4182,-19.42956"
         id="path85" />
    </g>
    <g
       id="g81">
      <path
         style="fill:none;stroke:#ff0000;stroke-width:13.474;stroke-linecap:round;stroke-linejoin:round;stroke-dasharray:none"
         d="M 1587.6726,714.82936 V 611.13895"
         id="path86" />
      <path
         style="fill:none;stroke:#ffff00;stroke-width:13.474;stroke-linecap:round;stroke-linejoin:round;stroke-dasharray:none"
         d="m 1587.6726,662.98415 c 9.8809,-6.93733 19.687,-14.02434 30.3339,-19.42956 l 15.3652,0.39653 c 8.9973,2.13934 11.1161,7.2593 12.2922,12.78782 l 1.6852,57.59476"
         id="path87" />
    </g>
    <g
       id="g82">
      <path
         style="fill:none;stroke:#ff0000;stroke-width:13.474;stroke-linecap:round;stroke-linejoin:round;stroke-dasharray:none"
         d="m 1812.5216,643.78885 22.9853,0.20223 v 52.64188 17.21397"
         id="path88" />
      <path
         style="fill:none;stroke:#ffff00;stroke-width:13.474;stroke-linecap:round;stroke-linejoin:round;stroke-dasharray:none"
         d="m 1859.2025,713.84693 h -47.3912"
         id="path89" />
      <path
         style="fill:none;stroke:#ffff00;stroke-width:13.474;stroke-linecap:round;stroke-linejoin:round;stroke-dasharray:none"
         d="m 1835.5069,603.01866 v 10.76496"
         id="path90" />
    </g>
    <g
       id="g83">
      <path
         style="fill:none;stroke:#ffff00;stroke-width:13.474;stroke-linecap:round;stroke-linejoin:round;stroke-dasharray:none"
         d="m 2045.226,643.35553 h 30.9901 v 86.64846 c -0.3986,10.06055 -5.8504,13.28435 -11.7762,15.86696 h -17.6024 c -7.3201,-1.00877 -13.2249,-6.16551 -15.743,-13.38775"
         id="path91" />
      <path
         style="fill:none;stroke:#ffff00;stroke-width:13.474;stroke-linecap:round;stroke-linejoin:round;stroke-dasharray:none"
         d="m 2076.2161,613.8529 v -9.79288"
         id="path92" />
    </g>
    <g
       id="g84">
      <path
         style="fill:none;stroke:#ffff00;stroke-width:13.474;stroke-linecap:round;stroke-linejoin:round;stroke-dasharray:none"
         d="M 2242.3233,611.49765 V 713.39327"
         id="path93" />
      <path
         style="fill:none;stroke:#00ff00;stroke-width:13.474;stroke-linecap:round;stroke-linejoin:round;stroke-dasharray:none"
         d="m 2242.3233,686.61778 52.1875,-42.64245"
         id="path94" />
      <path
         style="fill:none;stroke:#ff0000;stroke-width:13.474;stroke-linecap:round;stroke-linejoin:round;stroke-dasharray:none"
         d="m 2257.7829,673.98577 45.4051,40.6471"
         id="path95" />
    </g>
    <g
       id="g85">
      <path
         style="fill:none;stroke:#00ff00;stroke-width:13.474;stroke-linecap:round;stroke-linejoin:round;stroke-dasharray:none"
         d="m 66.817016,798.02048 h 23.34726 l 0.12899,102.24637"
         id="path96" />
      <path
         style="fill:none;stroke:#ff0000;stroke-width:13.474;stroke-linecap:round;stroke-linejoin:round;stroke-dasharray:none"
         d="M 112.6516,900.35285 H 67.676952"
         id="path97" />
    </g>
    <g
       id="g86">
      <path
         style="fill:none;stroke:#ff0000;stroke-width:13.474;stroke-linecap:round;stroke-linejoin:round;stroke-dasharray:none"
         d="M 276.46938,901.29878 V 831.04202"
         id="path98" />
      <path
         style="fill:none;stroke:#ffff00;stroke-width:13.474;stroke-linecap:round;stroke-linejoin:round;stroke-dasharray:none"
         d="m 276.46938,844.02705 16.42477,-13.58699 c 8.77535,-2.23602 10.71204,1.45203 14.70491,5.84756 l 0.68795,64.06523"
         id="path99" />
      <path
         style="display:inline;fill:none;stroke:#00ff00;stroke-width:13.474;stroke-linecap:round;stroke-linejoin:round;stroke-dasharray:none"
         d="m 307.7318,844.02705 15.47884,-13.24302 c 8.77535,-2.23602 10.79803,1.28005 14.7909,5.67558 l 1.54789,63.89324"
         id="path99-3" />
    </g>
    <g
       id="g87">
      <path
         style="fill:none;stroke:#00ff00;stroke-width:13.474;stroke-linecap:round;stroke-linejoin:round;stroke-dasharray:none"
         d="m 496.52697,830.44006 0.086,69.99878"
         id="path100" />
      <path
         style="fill:none;stroke:#ff0000;stroke-width:13.474;stroke-linecap:round;stroke-linejoin:round;stroke-dasharray:none"
         d="m 496.54969,848.92934 30.505,-18.40329 15.65083,-0.086 c 4.97982,1.86168 9.60743,5.62294 11.60914,13.67298 l 2.23583,56.41179"
         id="path101" />
    </g>
    <g
       id="g88">
      <path
         style="fill:none;stroke:#ff0000;stroke-width:13.474;stroke-linecap:round;stroke-linejoin:round;stroke-dasharray:none"
         d="m 733.3533,830.52606 22.61632,-0.086 c 11.03051,2.86774 16.68357,9.14556 18.31663,17.97266 v 32.93555 c -1.27604,10.34096 -8.09512,15.3177 -16.42477,18.83259 l -24.1642,0.17199 c -9.38428,-2.33748 -16.34519,-7.76684 -19.09058,-18.57462 v -33.62349 c 2.85609,-8.54932 8.33941,-15.02871 18.7466,-17.62868 z"
         id="path102" />
    </g>
    <g
       id="g89">
      <path
         style="fill:none;stroke:#ff0000;stroke-width:13.474;stroke-linecap:round;stroke-linejoin:round;stroke-dasharray:none"
         d="m 933.1164,826.39836 0.086,106.28807"
         id="path103" />
      <path
         style="fill:none;stroke:#ffff00;stroke-width:13.474;stroke-linecap:round;stroke-linejoin:round;stroke-dasharray:none"
         d="m 933.1594,848.06875 21.19742,-18.8326 c 5.79023,-3.38782 11.58047,-3.25784 17.3707,-0.68795 l 16.76875,14.61891 c 2.77393,2.98029 3.9582,6.39412 4.21369,10.06125 v 24.42218 c 0.24187,4.54829 -2.69633,8.1181 -5.3316,11.78112 l -13.84497,11.86712 c -7.30474,3.96627 -14.30721,3.09615 -21.15442,-0.25798 L 933.1594,879.54239"
         id="path104" />
    </g>
    <g
       id="g90">
      <path
         style="fill:none;stroke:#ff0000;stroke-width:13.474;stroke-linecap:round;stroke-linejoin:round"
         d="M 1211.0615,829.64402 V 931.82269"
         id="path36" />
      <path
         style="fill:none;stroke:#ffff00;stroke-width:13.474;stroke-linecap:round;stroke-linejoin:round"
         d="m 1211.0615,849.93106 c -6.737,-6.73257 -15.8733,-14.93204 -24.0046,-18.90624 l -17.6316,-0.21243 c -9.6422,2.31078 -14.7189,8.97945 -18.1628,17.2068 v 34.94468 c 6.3831,12.83528 12.1058,14.11419 17.9503,17.52544 h 17.6317 c 9.6815,-5.33373 17.04,-12.47428 24.217,-19.75596"
         id="path37" />
    </g>
    <g
       id="g91">
      <path
         style="fill:none;stroke:#ffff00;stroke-width:13.474;stroke-linecap:round;stroke-linejoin:round"
         d="m 1369.534,829.64402 v 71.05773"
         id="path38" />
      <path
         style="fill:none;stroke:#ff0000;stroke-width:13.474;stroke-linecap:round;stroke-linejoin:round"
         d="m 1369.534,855.66666 25.5978,-22.41133 c 3.0473,-2.53166 6.4615,-2.49512 9.7717,-3.18645 h 10.7277 c 8.6006,2.27207 14.0394,6.52032 13.5955,14.44522 v 4.9921"
         id="path39" />
    </g>
    <g
       id="g92">
      <path
         style="fill:none;stroke:#ff0000;stroke-width:13.474;stroke-linecap:round;stroke-linejoin:round"
         d="m 1648.0293,836.86663 c -2.5581,-2.88106 -6.0332,-5.99396 -9.9842,-6.69153 l -36.6441,0.53107 c -10.6255,0.1586 -17.6779,14.05166 -5.2046,21.4554 l 41.7425,19.11867 c 14.4551,10.08819 6.6183,24.81767 -3.2927,29.20907 h -32.2893 c -4.4661,0.11216 -9.3134,-1.45312 -15.1887,-7.54125"
         id="path40" />
    </g>
    <g
       id="g93">
      <path
         style="fill:none;stroke:#ff0000;stroke-width:13.474;stroke-linecap:round;stroke-linejoin:round"
         d="m 1820.8408,804.89597 -0.2124,80.82948 c 0.8834,7.80227 4.9632,13.11838 13.4893,14.97629 h 17.4192 c 8.699,-1.04829 12.2032,-6.61377 14.4452,-13.27685"
         id="path41" />
      <path
         style="fill:#ffff00;stroke:#ffff00;stroke-width:13.474;stroke-linecap:round;stroke-linejoin:round"
         d="m 1805.0148,830.06888 h 52.895"
         id="path42" />
    </g>
    <g
       id="g94">
      <path
         style="fill:none;stroke:#ffff00;stroke-width:13.474;stroke-linecap:round;stroke-linejoin:round"
         d="m 2024.5608,829.75024 1.9119,56.6125 c 1.087,7.72883 5.981,11.65065 12.4271,14.02036 l 15.295,-0.42486 30.0588,-18.48138"
         id="path43" />
      <path
         style="fill:none;stroke:#ff0000;stroke-width:13.474;stroke-linecap:round;stroke-linejoin:round"
         d="m 2084.2536,829.21916 v 71.37637"
         id="path44" />
    </g>
    <g
       id="g95">
      <path
         id="path45-1"
         style="display:inline;fill:none;stroke:#ff0000;stroke-width:13.474;stroke-linecap:round;stroke-linejoin:round"
         d="m 2302.5167,829.84828 -0.4902,13.50554 -29.8952,59.16993 -29.4219,-59.35847 -0.1856,-12.99349" />
    </g>
    <g
       id="g96">
      <path
         style="fill:none;stroke:#ff0000;stroke-width:13.474;stroke-linecap:round;stroke-linejoin:round"
         d="m 57.8366,1016.4721 2.310164,44.2231 7.014344,26.7404 7.736142,0.01 14.621596,-21.5502 v -24.7518"
         id="path45" />
      <path
         style="display:inline;fill:none;stroke:#ffff00;stroke-width:13.474;stroke-linecap:round;stroke-linejoin:round"
         d="m 121.20109,1016.4721 -2.31016,44.2231 -6.37929,26.7404 -7.42805,-0.07 -15.564744,-21.4728"
         id="path45-9" />
    </g>
    <g
       id="g97">
      <path
         style="font-variation-settings:normal;opacity:1;vector-effect:none;fill:none;fill-opacity:1;stroke:#ffff00;stroke-width:13.474;stroke-linecap:round;stroke-linejoin:round;stroke-miterlimit:4;stroke-dasharray:none;stroke-dashoffset:0;stroke-opacity:1;-inkscape-stroke:none;stop-color:#000000;stop-opacity:1"
         d="m 281.01492,1016.2245 58.66166,71.2026"
         id="path46" />
      <path
         style="font-variation-settings:normal;display:inline;vector-effect:none;fill:none;fill-opacity:1;stroke:#ffff00;stroke-width:13.474;stroke-linecap:round;stroke-linejoin:round;stroke-miterlimit:4;stroke-dasharray:none;stroke-dashoffset:0;stroke-opacity:1;-inkscape-stroke:none;stop-color:#000000"
         d="m 339.67658,1016.2245 -58.66166,71.2026"
         id="path46-7" />
    </g>
    <g
       id="g98">
      <path
         style="font-variation-settings:normal;opacity:1;vector-effect:none;fill:none;fill-opacity:1;stroke:#ffff00;stroke-width:13.474;stroke-linecap:round;stroke-linejoin:round;stroke-miterlimit:4;stroke-dasharray:none;stroke-dashoffset:0;stroke-opacity:1;-inkscape-stroke:none"
         d="m 496.68521,1015.3995 v 12.7059 l 22.6066,52.1437 h 15.25624"
         id="path47" />
      <path
         style="font-variation-settings:normal;opacity:1;vector-effect:none;fill:none;fill-opacity:1;stroke:#ff0000;stroke-width:13.474;stroke-linecap:round;stroke-linejoin:round;stroke-miterlimit:4;stroke-dasharray:none;stroke-dashoffset:0;stroke-opacity:1;-inkscape-stroke:none"
         d="m 495.69514,1119.1093 h 22.02906 l 38.61274,-89.1888 v -14.026"
         id="path48" />
    </g>
    <g
       id="g99">
      <path
         style="font-variation-settings:normal;opacity:1;vector-effect:none;fill:none;fill-opacity:1;stroke:#ff0000;stroke-width:13.474;stroke-linecap:round;stroke-linejoin:round;stroke-miterlimit:4;stroke-dasharray:none;stroke-dashoffset:0;stroke-opacity:1;-inkscape-stroke:none"
         d="m 718.0484,1016.6371 h 59.15669 l -64.02454,70.0474 h 61.54937"
         id="path49" />
    </g>
    <g
       id="g100">
      <path
         style="font-variation-settings:normal;opacity:1;vector-effect:none;fill:none;fill-opacity:1;stroke:#ff0000;stroke-width:13.474;stroke-linecap:round;stroke-linejoin:round;stroke-miterlimit:4;stroke-dasharray:none;stroke-dashoffset:0;stroke-opacity:1;-inkscape-stroke:none"
         d="m 119.27659,1234.7302 v 38.7921 H 59.09448"
         id="path50" />
      <path
         style="font-variation-settings:normal;opacity:1;vector-effect:none;fill:none;fill-opacity:1;stroke:#ffff00;stroke-width:13.474;stroke-linecap:round;stroke-linejoin:round;stroke-miterlimit:4;stroke-dasharray:none;stroke-dashoffset:0;stroke-opacity:1;-inkscape-stroke:none"
         d="M 90.001256,1273.5223 V 1171.7384 H 60.091472"
         id="path51" />
    </g>
    <g
       id="g101">
      <path
         style="font-variation-settings:normal;opacity:1;vector-effect:none;fill:none;fill-opacity:1;stroke:#ffff00;stroke-width:13.474;stroke-linecap:round;stroke-linejoin:round;stroke-miterlimit:4;stroke-dasharray:none;stroke-dashoffset:0;stroke-opacity:1;-inkscape-stroke:none"
         d="m 277.52653,1171.1946 h 52.11553 c 5.53535,0.509 8.8153,3.7811 8.79166,8.1572 l -0.18127,35.8011 c -0.29935,3.935 -2.57512,6.6358 -6.97895,7.4321 h -46.22421 c -4.08922,1.0496 -6.33386,3.4519 -6.79768,7.1602 v 43.9584 h 60.27275"
         id="path52" />
    </g>
    <g
       id="g102">
      <path
         style="font-variation-settings:normal;opacity:1;vector-effect:none;fill:none;fill-opacity:1;stroke:#ffff00;stroke-width:13.474;stroke-linecap:round;stroke-linejoin:round;stroke-miterlimit:4;stroke-dasharray:none;stroke-dashoffset:0;stroke-opacity:1;-inkscape-stroke:none"
         d="m 495.59603,1171.2852 h 53.74698 c 3.76505,0.5124 6.49514,2.2815 6.88831,6.8883 v 32.2663 c -1.37008,6.4698 -5.52344,9.56 -10.24183,11.964 h -34.62284"
         id="path53" />
      <path
         style="font-variation-settings:normal;display:inline;vector-effect:none;fill:none;fill-opacity:1;stroke:#ff0000;stroke-width:13.474;stroke-linecap:round;stroke-linejoin:round;stroke-miterlimit:4;stroke-dasharray:none;stroke-dashoffset:0;stroke-opacity:1;-inkscape-stroke:none"
         d="m 495.59603,1273.5224 h 53.74698 c 3.76505,-0.5124 6.49514,-2.2815 6.88831,-6.8883 v -32.2663 c -1.37008,-6.4698 -5.52344,-9.56 -10.24183,-11.964"
         id="path53-4" />
    </g>
    <g
       id="g103">
      <path
         style="font-variation-settings:normal;opacity:1;vector-effect:none;fill:none;fill-opacity:1;stroke:#ff0000;stroke-width:13.474;stroke-linecap:round;stroke-linejoin:round;stroke-miterlimit:4;stroke-dasharray:none;stroke-dashoffset:0;stroke-opacity:1;-inkscape-stroke:none"
         d="m 718.6505,1170.7414 v 64.3514 h 52.74999"
         id="path54" />
      <path
         style="font-variation-settings:normal;opacity:1;vector-effect:none;fill:none;fill-opacity:1;stroke:#ffff00;stroke-width:13.474;stroke-linecap:round;stroke-linejoin:round;stroke-miterlimit:4;stroke-dasharray:none;stroke-dashoffset:0;stroke-opacity:1;-inkscape-stroke:none"
         d="m 763.15264,1183.521 v 90.5451"
         id="path55" />
    </g>
    <g
       id="g104">
      <path
         style="font-variation-settings:normal;opacity:1;vector-effect:none;fill:none;fill-opacity:1;stroke:#ffff00;stroke-width:13.474;stroke-linecap:round;stroke-linejoin:round;stroke-miterlimit:4;stroke-dasharray:none;stroke-dashoffset:0;stroke-opacity:1;-inkscape-stroke:none"
         d="m 994.54559,1171.2852 h -44.32086 v 50.8466 h 36.52619 c 6.61962,1.1724 7.60389,4.7981 8.06658,8.3386 l -0.45318,36.4355 c -0.65283,2.7715 -0.2253,5.8755 -6.88831,6.7977 l -37.16064,-0.1813 -16.13316,-6.979"
         id="path56" />
    </g>
    <g
       id="g105">
      <path
         style="font-variation-settings:normal;opacity:1;vector-effect:none;fill:none;fill-opacity:1;stroke:#ffff00;stroke-width:13.474;stroke-linecap:round;stroke-linejoin:round;stroke-miterlimit:4;stroke-dasharray:none;stroke-dashoffset:0;stroke-opacity:1;-inkscape-stroke:none"
         d="m 1159.3213,1171.3759 h -7.6134 l -0.5438,95.2581 c -0.6477,5.6894 3.3458,7.1445 7.4321,7.2508 l 45.5898,-0.7251 c 4.8138,0.4028 7.0595,-1.7623 6.7977,-6.4351 v -24.4716 c 0.2563,-5.9695 -2.7291,-7.2565 -6.7977,-6.979 l -52.4781,-0.091"
         id="path57" />
    </g>
    <g
       id="g106">
      <path
         style="font-variation-settings:normal;opacity:1;vector-effect:none;fill:none;fill-opacity:1;stroke:#ffff00;stroke-width:13.474;stroke-linecap:round;stroke-linejoin:round;stroke-miterlimit:4;stroke-dasharray:none;stroke-dashoffset:0;stroke-opacity:1;-inkscape-stroke:none"
         d="m 1369.143,1179.7143 0.1812,-7.6134 h 58.8226 v 37.7045 l -28.9128,26.1937 v 37.8857"
         id="path58" />
    </g>
    <g
       id="g107">
      <path
         style="font-variation-settings:normal;opacity:1;vector-effect:none;fill:none;fill-opacity:1;stroke:#ffff00;stroke-width:13.474;stroke-linecap:round;stroke-linejoin:round;stroke-miterlimit:4;stroke-dasharray:none;stroke-dashoffset:0;stroke-opacity:1;-inkscape-stroke:none"
         d="m 1594.3727,1223.0382 h 46.1336 c 3.3111,1.126 6.0877,2.8311 6.5257,7.0696 v 36.7074 c 0.023,4.1801 -3.2444,5.5404 -6.5257,6.8884 h -46.4055 c -3.9616,-1.2228 -6.4004,-3.642 -6.979,-7.5228 v -36.4356 c 1.2688,-2.9111 2.0277,-6.1221 7.2509,-6.707 z"
         id="path59" />
      <path
         style="font-variation-settings:normal;opacity:1;vector-effect:none;fill:none;fill-opacity:1;stroke:#ff0000;stroke-width:13.474;stroke-linecap:round;stroke-linejoin:round;stroke-miterlimit:4;stroke-dasharray:none;stroke-dashoffset:0;stroke-opacity:1;-inkscape-stroke:none"
         d="m 1601.8048,1223.0382 v -44.3209 c -0.8377,-6.3325 2.4273,-7.9059 7.6134,-7.2508 h 16.2238 c 6.5333,-0.5379 6.9147,2.8791 6.7977,6.6164 v 44.9553"
         id="path60" />
    </g>
    <g
       id="g108">
      <path
         style="font-variation-settings:normal;opacity:1;vector-effect:none;fill:none;fill-opacity:1;stroke:#ff0000;stroke-width:13.474;stroke-linecap:round;stroke-linejoin:round;stroke-miterlimit:4;stroke-dasharray:none;stroke-dashoffset:0;stroke-opacity:1;-inkscape-stroke:none"
         d="m 1857.1256,1273.5223 8.5198,-0.1813 v -95.2581 c 0.1241,-4.3384 -1.7291,-6.8971 -6.4352,-6.8883 h -45.8617 c -6.5879,-0.2342 -7.3398,3.2834 -7.2508,7.3415 v 24.0184 c -0.9555,7.8907 3.0873,7.8297 7.3415,7.4322 l 52.2062,-0.3626"
         id="path61" />
    </g>
    <g
       id="g109">
      <path
         style="font-variation-settings:normal;opacity:1;vector-effect:none;fill:none;fill-opacity:1;stroke:#ff0000;stroke-width:13.474;stroke-linecap:round;stroke-linejoin:round;stroke-miterlimit:4;stroke-dasharray:none;stroke-dashoffset:0;stroke-opacity:1;-inkscape-stroke:none"
         d="m 2031.1461,1171.2852 h 45.7711 c 3.9789,0.6043 7.13,2.1283 6.7977,7.5228 v 87.9166 c -0.3407,3.5296 -1.3556,6.6419 -6.7071,7.0696 h -46.3148 c -4.1485,-0.5596 -6.3943,-3.1578 -7.1603,-7.3415 l 0.1813,-87.826 c 0.9219,-4.1063 2.8995,-7.0866 7.4321,-7.3415 z"
         id="path62" />
    </g>
    <g
       id="g118">
      <path
         style="font-variation-settings:normal;opacity:1;fill:none;fill-opacity:1;stroke:#000000;stroke-width:13.474;stroke-linecap:round;stroke-linejoin:round;stroke-miterlimit:4;stroke-dasharray:none;stroke-dashoffset:0;stroke-opacity:1"
         d="m 2235.7868,1222.5397 c 65.461,0 74.1382,0 74.1382,0"
         id="path118" />
    </g>
    <g
       id="g122"
       transform="translate(-2370.8793,196.47147)">
      <path
         style="font-variation-settings:normal;opacity:1;fill:none;fill-opacity:1;stroke:#000000;stroke-width:13.474;stroke-linecap:round;stroke-linejoin:round;stroke-miterlimit:4;stroke-dasharray:none;stroke-dashoffset:0;stroke-opacity:1"
         d="m 2456.3587,1186.7676 h 7.7204"
         id="path121" />
      <path
         style="font-variation-settings:normal;opacity:1;fill:none;fill-opacity:1;stroke:#000000;stroke-width:13.474;stroke-linecap:round;stroke-linejoin:round;stroke-miterlimit:4;stroke-dasharray:none;stroke-dashoffset:0;stroke-opacity:1"
         d="m 2456.3587,1244.6409 7.7204,0.049"
         id="path122" />
    </g>
    <g
       id="g126">
      <path
         style="font-variation-settings:normal;opacity:1;fill:none;fill-opacity:1;stroke:#000000;stroke-width:13.474;stroke-linecap:round;stroke-linejoin:round;stroke-miterlimit:4;stroke-dasharray:none;stroke-dashoffset:0;stroke-opacity:1"
         d="m 279.60843,1396.4317 h 58.79492"
         id="path123" />
      <path
         style="font-variation-settings:normal;opacity:1;fill:none;fill-opacity:1;stroke:#000000;stroke-width:13.474;stroke-linecap:round;stroke-linejoin:round;stroke-miterlimit:4;stroke-dasharray:none;stroke-dashoffset:0;stroke-opacity:1"
         d="m 279.83964,1427.6224 58.3325,0.068"
         id="path124" />
      <path
         style="font-variation-settings:normal;opacity:1;fill:none;fill-opacity:1;stroke:#000000;stroke-width:13.474;stroke-linecap:round;stroke-linejoin:round;stroke-miterlimit:4;stroke-dasharray:none;stroke-dashoffset:0;stroke-opacity:1"
         d="m 293.32661,1457.1067 v -90.9075"
         id="path125" />
      <path
         style="font-variation-settings:normal;opacity:1;fill:none;fill-opacity:1;stroke:#000000;stroke-width:13.474;stroke-linecap:round;stroke-linejoin:round;stroke-miterlimit:4;stroke-dasharray:none;stroke-dashoffset:0;stroke-opacity:1"
         d="m 325.25985,1457.4316 v -91.5573"
         id="path126" />
    </g>
    <g
       id="g110">
      <path
         style="fill:#000000;stroke:#ff0000;stroke-width:13.474;stroke-linecap:round;stroke-linejoin:round;stroke-dasharray:none"
         d="m 556.91548,1349.885 -62.00361,106.5674"
         id="path63" />
    </g>
  </g>
</svg>
